<?xml version="1.0" standalone="no"?><!DOCTYPE svg PUBLIC "-//W3C//DTD SVG 1.1//EN" "http://www.w3.org/Graphics/SVG/1.1/DTD/svg11.dtd"><svg t="1709279152570" class="icon" viewBox="0 0 1024 1024" version="1.1" xmlns="http://www.w3.org/2000/svg" p-id="14377" xmlns:xlink="http://www.w3.org/1999/xlink" width="200" height="200"><path d="M406.811944 101.386139h557.623762v152.079208H406.811944z" fill="#79A7FF" p-id="14378"></path><path d="M918.811944 1022.68198H104.83333a104.37703 104.37703 0 0 1-103.71802-104.37703V104.731881A104.37703 104.37703 0 0 1 104.83333 0.354851h304.56396a33.457426 33.457426 0 0 1 32.798416 32.849109v227.104951a32.798416 32.798416 0 0 1-32.798416 32.798416 32.798416 32.798416 0 0 1-32.849108-32.798416v-196.689109H104.782637a38.729505 38.729505 0 0 0-38.070495 38.729505v816.158416a38.729505 38.729505 0 0 0 38.070495 38.729505h813.978614a38.729505 38.729505 0 0 0 38.070495-38.729505V265.783762a32.849109 32.849109 0 0 1 32.798416-32.849109 32.849109 32.849109 0 0 1 32.849109 32.849109v652.521188a104.37703 104.37703 0 0 1-103.71802 104.37703z m0 0" fill="#377DFF" p-id="14379"></path><path d="M988.261449 311.508911a34.927525 34.927525 0 0 1-34.217822-34.217822V183.965149a39.743366 39.743366 0 0 0-39.743366-40.554456H421.411548a34.217822 34.217822 0 1 1 0-68.486337h492.888713a108.888713 108.888713 0 0 1 108.17901 108.888713v93.427327a34.217822 34.217822 0 0 1-34.268515 34.217822z m0 0" fill="#377DFF" p-id="14380"></path><path d="M989.680855 300.76198H53.075706a33.558812 33.558812 0 0 1-32.798416-34.217822 33.558812 33.558812 0 0 1 32.798416-34.268514h936.605149a33.558812 33.558812 0 0 1 32.798416 34.268514 33.558812 33.558812 0 0 1-32.798416 34.217822z m0 0" fill="#377DFF" p-id="14381"></path><path d="M703.569172 300.76198a32.088713 32.088713 0 0 1-34.217822-29.40198V127.239604a34.623366 34.623366 0 0 1 68.486337 0v144.120396a32.088713 32.088713 0 0 1-34.217822 29.40198z m0 0" fill="#377DFF" p-id="14382"></path></svg>