<svg class="icon" width="200" height="200" p-id="1922" t="1660030183477" version="1.1" viewBox="0 0 1024 1024" xmlns="http://www.w3.org/2000/svg">
 <defs>
  <style type="text/css"/>
 </defs>
 <path d="m235.52 204.8c-7.6799 0-15.362 3.0703-21.506 9.2143-12.288 12.288-12.288 30.724 0 43.013l254.97 254.97-254.97 254.97c-12.288 12.288-12.288 30.724 0 43.013 6.1439 6.1441 13.826 9.2143 21.506 9.2143 7.68 0 15.362-3.0703 21.506-9.2143l254.97-254.97 254.97 254.97c6.1439 6.1441 13.826 9.2143 21.506 9.2143 7.6799 0 15.362-3.0703 21.506-9.2143 12.288-12.288 12.288-30.724 0-43.013l-254.97-254.97 254.97-254.97c12.288-12.288 12.288-30.724 0-43.013-6.1439-6.1441-13.826-9.2143-21.506-9.2143-7.68 0-15.362 3.0703-21.506 9.2143l-254.97 254.97-254.97-254.97c-6.1439-6.1441-13.826-9.2143-21.506-9.2143z" stroke-width=".96001"/>
</svg>
