<svg t="1676511927584" class="icon" viewBox="0 0 1024 1024" version="1.1" xmlns="http://www.w3.org/2000/svg" p-id="18731" width="200" height="200"><path d="M156 219H92a4 4 0 0 0-4 4v634a4 4 0 0 0 4 4h64a4 4 0 0 0 4-4V223a4 4 0 0 0-4-4z m756.7 128.4h-368V172.8a16 16 0 0 0-16.2-16 15.4 15.4 0 0 0-12.2 5.9L238.9 501.9a16 16 0 0 0 0 20.2l277.4 339.2a15.4 15.4 0 0 0 12.2 5.9 16 16 0 0 0 16.2-16V676.6h368a16 16 0 0 0 16-16V363.4a16 16 0 0 0-16-16z m-56 257.2h-384v89.6L323.7 512l149-182.2v89.6h384z" p-id="18732"></path></svg>