<svg t="1676511848479" class="icon" viewBox="0 0 1024 1024" version="1.1" xmlns="http://www.w3.org/2000/svg" p-id="18577" width="200" height="200"><path d="M924 191h-64a4 4 0 0 0-4 4v634a4 4 0 0 0 4 4h64a4 4 0 0 0 4-4V195a4 4 0 0 0-4-4z m-416.3-28.3a15.4 15.4 0 0 0-12.2-5.9 16 16 0 0 0-16.2 16v174.6h-368a16 16 0 0 0-16 16v297.2a16 16 0 0 0 16 16h368v174.6a16 16 0 0 0 16.2 16 15.4 15.4 0 0 0 12.2-5.9l277.4-339.2a16 16 0 0 0 0-20.2z m43.6 531.5v-89.6h-384V419.4h384v-89.6l149 182.2z" p-id="18578"></path></svg>