<svg class="icon" width="200" height="200" p-id="6183" t="1660269579969" version="1.1" viewBox="0 0 1024 1024" xmlns="http://www.w3.org/2000/svg">
 <defs>
  <style type="text/css"/>
 </defs>
 <path d="m512 15.756c-273.37 0-494.99 222.17-494.99 496.24s221.61 496.24 494.99 496.24 494.99-222.17 494.99-496.24c0-274.07-221.58-496.24-494.99-496.24zm0 942.84c-246.06 0-445.51-199.94-445.51-446.63 0-246.68 199.45-446.63 445.51-446.63s445.51 199.94 445.51 446.63-199.45 446.63-445.51 446.63z" p-id="6184"/>
 <path d="m512.05 308.72c-51.167 0-102.23 19.852-141.25 59.557-38.945 39.672-58.5 91.731-58.5 143.72s19.522 104.05 58.5 143.72c39.011 39.705 90.079 59.557 141.25 59.557 51.101 0 102.17-19.852 141.18-59.557 38.945-39.672 58.467-91.731 58.467-143.72s-19.522-104.05-58.467-143.72c-39.011-39.705-90.079-59.557-141.18-59.557zm14.336 47.599c3.3363-12.618 16.153-20.183 28.606-16.78 12.486 3.4023 19.819 16.417 16.483 29.068-3.3363 12.684-16.087 20.249-28.54 16.846-12.486-3.4023-19.885-16.417-16.549-29.134zm-155.85 217.05c-12.387 3.4354-25.204-4.063-28.54-16.747-3.3362-12.684 3.9969-25.732 16.483-29.134 12.486-3.3693 25.27 4.129 28.606 16.846 3.3362 12.651-4.063 25.633-16.549 29.035zm16.417-154.33c-9.1169-9.2821-9.1169-24.312 0-33.594 9.1499-9.2821 23.882-9.2821 32.999 0 9.0839 9.2821 9.0839 24.312 0 33.594-9.1169 9.3151-23.882 9.3151-32.999 0zm106.69 245.99c-3.3363 12.618-16.153 20.183-28.54 16.78-12.486-3.4023-19.885-16.417-16.549-29.068 3.3363-12.684 16.153-20.249 28.606-16.846 12.42 3.4023 19.819 16.417 16.483 29.134zm-52.224-84.463c-37.888-38.648-37.888-101.14 0-139.73 37.888-38.549 99.361-38.549 137.25 0 37.888 38.582 37.888 101.11 0 139.73-37.888 38.549-99.361 38.549-137.25 0zm191.75 55.329c-9.1499 9.249-23.948 9.249-32.999 0-9.1169-9.2821-9.1169-24.345 0-33.594 9.0839-9.3151 23.882-9.3151 32.999 0 9.0508 9.249 9.0508 24.279 0 33.594zm44.924-171.17c3.3363 12.717-4.063 25.732-16.549 29.134-12.387 3.3693-25.204-4.129-28.54-16.846-3.3363-12.651 4.063-25.699 16.483-29.101 12.486-3.3363 25.27 4.129 28.606 16.813z" p-id="6185"/>
 <g transform="translate(.47897 28.177)">
  <path d="m210.09 197.4 21.669 142.01 36.6-5.6816-21.669-142.04z" p-id="6186"/>
  <path d="m398.01 863.79 23.222 29.432 109.24-89.484-23.222-29.432z" p-id="6187"/>
  <path d="m777.55 308.98-13.411 35.179 129.98 51.266 13.411-35.179z" p-id="6188"/>
  <path d="m115.51 606.64 131.3 51.795 13.411-35.179-131.3-51.795z" p-id="6189"/>
  <path d="m627.61 103.85-23.189-29.432-105.77 86.644 23.189 29.399z" p-id="6190"/>
  <path d="m756.93 636.2 21.273 139.92 36.699-5.7806-21.306-139.96z" p-id="6191"/>
 </g>
</svg>
