<svg t="1660395328256" class="icon" viewBox="0 0 1024 1024" version="1.1" xmlns="http://www.w3.org/2000/svg" p-id="7284"
    width="200" height="200">
    <path
        d="M640 970.666667H384c-231.765333 0-330.666667-98.901333-330.666667-330.666667V384c0-231.765333 98.901333-330.666667 330.666667-330.666667h256c231.765333 0 330.666667 98.901333 330.666667 330.666667v256c0 231.765333-98.901333 330.666667-330.666667 330.666667z m-256-853.333334C187.136 117.333333 117.333333 187.136 117.333333 384v256c0 196.864 69.802667 266.666667 266.666667 266.666667h256c196.864 0 266.666667-69.802667 266.666667-266.666667V384c0-196.864-69.76-266.666667-266.666667-266.666667z"
        fill="#292D32" p-id="7285"></path>
    <path
        d="M266.666667 523.093333A245.632 245.632 0 0 1 512 277.76a271.445333 271.445333 0 0 1 80.64 11.946667 32.128 32.128 0 0 1-18.773333 61.44A212.736 212.736 0 0 0 512 342.186667a180.821333 180.821333 0 1 0 151.04 80.64 32 32 0 0 1 53.333333-35.413334 245.333333 245.333333 0 1 1-449.706666 135.68z"
        fill="#292D32" p-id="7286"></path>
    <path
        d="M589.269333 347.306667l-71.253333-81.493334a32.042667 32.042667 0 0 1 48.213333-42.24l71.253334 81.493334a32.256 32.256 0 0 1-2.986667 45.226666 29.866667 29.866667 0 0 1-20.906667 8.106667 32.512 32.512 0 0 1-24.32-11.093333z"
        fill="#292D32" p-id="7287"></path>
    <path
        d="M504.746667 405.717333a32.469333 32.469333 0 0 1 6.741333-44.8l82.858667-60.586666a32.469333 32.469333 0 0 1 44.8 6.741333 32.469333 32.469333 0 0 1-6.826667 44.8l-82.773333 60.586667a31.189333 31.189333 0 0 1-18.773334 6.4 32.725333 32.725333 0 0 1-26.026666-13.141334z"
        fill="#292D32" p-id="7288"></path>
</svg>