<svg t="1660395383199" class="icon" viewBox="0 0 1024 1024" version="1.1" xmlns="http://www.w3.org/2000/svg"
    p-id="10503" width="200" height="200">
    <path
        d="M768 707.669333V256H469.333333a42.666667 42.666667 0 1 1 0-85.333333h341.333334a42.666667 42.666667 0 0 1 42.666666 42.666666v494.336l55.168-55.168a42.666667 42.666667 0 0 1 60.330667 60.330667l-128 128a42.666667 42.666667 0 0 1-60.330667 0l-128-128a42.666667 42.666667 0 0 1 60.330667-60.330667L768 707.669333zM256 316.330667V768h298.666667a42.666667 42.666667 0 1 1 0 85.333333H213.333333a42.666667 42.666667 0 0 1-42.666666-42.666666V316.330667l-55.168 55.168a42.666667 42.666667 0 0 1-60.330667-60.330667l128-128a42.666667 42.666667 0 0 1 60.330667 0l128 128a42.666667 42.666667 0 0 1-60.330667 60.330667L256 316.330667z"
        p-id="10504"></path>
</svg>