<svg t="1660395291415" class="icon" viewBox="0 0 1024 1024" version="1.1" xmlns="http://www.w3.org/2000/svg" p-id="7049"
    width="200" height="200">
    <path
        d="M266.666667 523.093333a241.152 241.152 0 0 1 41.386666-136.106666 32 32 0 0 1 53.333334 35.413333 181.504 181.504 0 1 0 151.04-80.64 214.826667 214.826667 0 0 0-61.866667 8.96 32.384 32.384 0 0 1-40.106667-21.333333 32.042667 32.042667 0 0 1 21.333334-40.106667 269.44 269.44 0 0 1 80.64-11.946667 245.546667 245.546667 0 1 1-245.76 245.76z"
        fill="#292D32" p-id="7050"></path>
    <path
        d="M389.504 350.72a32.256 32.256 0 0 1-2.986667-45.226667l71.253334-81.493333a31.872 31.872 0 0 1 45.226666-2.986667 32.256 32.256 0 0 1 2.986667 45.226667l-71.253333 81.493333a34.389333 34.389333 0 0 1-24.32 10.666667 32.469333 32.469333 0 0 1-20.906667-7.68z"
        fill="#292D32" p-id="7051"></path>
    <path
        d="M474.453333 413.013333L391.68 352.426667a32.085333 32.085333 0 0 1 38.101333-51.626667l82.773334 60.586667a31.957333 31.957333 0 0 1 6.826666 44.8 32.725333 32.725333 0 0 1-44.8 6.826666z"
        fill="#292D32" p-id="7052"></path>
    <path
        d="M640 970.666667H384c-231.765333 0-330.666667-98.901333-330.666667-330.666667V384c0-231.765333 98.901333-330.666667 330.666667-330.666667h256c231.765333 0 330.666667 98.901333 330.666667 330.666667v256c0 231.765333-98.901333 330.666667-330.666667 330.666667z m-256-853.333334C187.136 117.333333 117.333333 187.136 117.333333 384v256c0 196.864 69.802667 266.666667 266.666667 266.666667h256c196.864 0 266.666667-69.802667 266.666667-266.666667V384c0-196.864-69.76-266.666667-266.666667-266.666667z"
        fill="#292D32" p-id="7053"></path>
</svg>