<svg class="icon" width="200" height="200" p-id="2129" t="1660034441839" version="1.1" viewBox="0 0 1024 1024" xmlns="http://www.w3.org/2000/svg">
 <path d="m861.68 670.07c-42.264 93.421-118.37 164.79-214.29 200.94a383.74 383.74 0 0 1-135.56 24.888c-53.832 0-107.52-11.472-158.03-34.332a384.83 384.83 0 0 1-85.645-53.484c2.088 19.248 2.688 39.252-0.144 56.82a24.072 24.072 0 0 1-47.52-7.6801c5.868-36.372-8.784-95.785-14.928-115.62a23.88 23.88 0 0 1 0.144-14.172c0.312-1.128 0.744-2.232 1.236-3.312 0.168-0.34803 0.264-0.72003 0.444-1.056 1.548-3.072 3.708-5.88 6.6-8.148a24.024 24.024 0 0 1 24.888-2.808c23.496 5.028 64.98 10.98 108.61 3.264a24.069 24.069 0 1 1 8.4001 47.4 306.12 306.12 0 0 1-61.848 4.2601 336.12 336.12 0 0 0 79.597 50.688c81.673 36.948 172.87 39.888 256.78 8.2561 83.893-31.632 150.44-94.033 187.41-175.73 36.948-81.673 39.9-172.85 8.28-256.77a24.072 24.072 0 1 1 45.036-16.968c36.144 95.941 32.784 200.2-9.4561 293.56zm-99.589-269.61a16.044 16.044 0 0 1 20.664 9.36c27.252 72.348 24.72 150.95-7.1161 221.34-47.652 105.3-153.3 170.07-264.45 170.07-26.556 0-53.424-3.6961-79.884-11.412a16.043 16.043 0 1 1 8.9761-30.804c122.05 35.556 253.62-25.08 306.11-141.08 28.332-62.58 30.564-132.47 6.336-196.79a16.044 16.044 0 0 1 9.3601-20.676zm-500.14 222.9a16.068 16.068 0 0 1-20.676-9.3601c-27.3-72.312-24.78-150.94 7.08-221.37 58.896-130.15 201.54-197.47 339.17-160.11a16.044 16.044 0 0 1-8.4121 30.96c-122.3-33.204-249.17 26.652-301.53 142.38a255.59 255.59 0 0 0-6.3 196.81 16.056 16.056 0 0 1-9.336 20.676zm554.39-332.09c-0.108 0.552-0.204 1.092-0.348 1.644a23.112 23.112 0 0 1-1.74 4.704c-0.084 0.192-0.132 0.372-0.22807 0.54-0.876 1.68-2.016 3.228-3.3 4.68-0.12 0.132-0.192 0.288-0.312 0.432-0.372 0.396-0.816 0.684-1.212 1.068-0.468 0.432-0.876 0.924-1.38 1.332-0.192 0.168-0.432 0.276-0.636 0.42-0.612 0.456-1.248 0.84-1.884 1.224-0.792 0.48-1.572 0.96-2.4 1.344-0.576 0.264-1.1761 0.46802-1.7761 0.70802a33.924 33.924 0 0 1-2.784 0.876c-0.612 0.144-1.212 0.228-1.836 0.324-0.96 0.156-1.908 0.276-2.892 0.3-0.288 0.0125-0.54 0.084-0.828 0.084-0.324 0-0.648-0.096-0.984-0.108a22.14 22.14 0 0 1-3.4321-0.408c-0.336-0.048-0.684-0.024-1.044-0.108-22.296-5.184-66.696-12.648-113.51-4.356a24.072 24.072 0 0 1-8.388-47.4 305.64 305.64 0 0 1 61.8-4.284 334.87 334.87 0 0 0-76.896-48.24c-168.6-76.26-367.87-1.14-444.16 167.49-36.96 81.709-39.9 172.91-8.256 256.81a24.062 24.062 0 1 1-45.024 16.992c-36.18-95.929-32.832-200.22 9.42-293.64 87.241-192.81 315.06-278.71 507.88-191.5a382.86 382.86 0 0 1 83.004 51.144c-2.1-19.272-2.712-39.312 0.144-56.892a24.063 24.063 0 1 1 47.508 7.692c-5.916 36.492 8.7721 95.809 14.904 115.6l0.048 0.22801c0.552 1.848 0.852 3.708 0.948 5.604 0.036 0.48-0.0127 0.936-0.0127 1.416-0.0127 1.44-0.132 2.868-0.396 4.284z" stroke-width=".7501" p-id="2130"/>
</svg>
