<svg t="1660059998342" class="icon" viewBox="0 0 1024 1024" version="1.1" xmlns="http://www.w3.org/2000/svg" p-id="5040"
    width="32" height="32">
    <path d="M305 705a218 219 0 1 0 436 0 218 219 0 1 0-436 0Z" fill="#F4EDFF" p-id="5041"></path>
    <path
        d="M512.5 156c47.618 0.086 86.413 38.635 86.5 86-0.087 47.343-38.882 85.914-86.5 86-47.64-0.086-86.413-38.657-86.5-86 0.087-47.365 38.86-85.914 86.5-86z m-295.695 79.867c0.043 0.043 0.043 0.086 0.086 0.129l43.102 42.833c8.404 8.374 22.068 8.374 30.473 0 8.426-8.374 8.426-22.316 0-30.668l-6.315-6.661h98.832c0.043 64.25 57.95 128.457 129.305 128.5 71.355-0.043 129.262-64.25 129.305-128.5h98.832l-6.314 6.66c-8.426 8.353-8.426 22.124 0 30.477 8.405 8.373 22.068 8.46 30.473 0.085l43.102-42.769a21.442 21.442 0 0 0 4.633-6.853c1.013-2.399 1.487-4.99 1.552-7.667 0.021-0.215 0.129-0.386 0.129-0.579 0-0.214-0.108-0.385-0.13-0.6-0.064-2.676-0.538-5.268-1.551-7.688a21.68 21.68 0 0 0-4.633-6.853l-43.102-42.834c-8.426-8.373-25.215-8.373-33.64 0-8.406 8.353-3.147 21.91-3.147 30.284v-0.386l12.628 5.89H634.051C616.25 155.833 568.514 113.02 512.288 113c-56.226 0.021-103.961 42.833-121.762 85.667H284.151l6.315-5.89c8.426-8.352 5.258-21.738-3.147-30.09-8.426-8.374-12.09-8.267-33.64 0.085v0.065l-39.956 42.854c-0.022 0.022 1.53 0.086 1.509 0.129-1.94 1.949-2.716 4.262-3.772 6.832-2.198 5.247-1.789 11.158 0.388 16.384 1.078 2.57 3.017 4.883 4.957 6.831z"
        fill="#7E41DF" p-id="5042"></path>
    <path
        d="M512.729 191c17.227 0 33.844 6.649 46.13 18.94 13.073 13.078 20.316 31.478 20.477 53.152l0.003 0.74-0.001 134.289 0.073-0.041c9.65-5.504 20.622-8.452 31.876-8.563l0.662-0.004c17.228 0 33.844 6.65 46.13 18.94 10.25 10.254 16.917 23.78 19.395 39.592l0.047 0.31 0.544-0.32c9.786-5.714 20.968-8.777 32.442-8.89l0.662-0.003c17.228 0 33.844 6.649 46.13 18.939 10.251 10.255 16.917 23.781 19.396 39.592l0.046 0.311 0.544-0.32c9.787-5.714 20.968-8.777 32.442-8.89l0.663-0.004c17.228 0 33.844 6.649 46.13 18.94 13.073 13.078 20.316 31.478 20.48 53.152v298.262c0 36.593-27.96 66.277-64.099 66.867l-1.097 0.009H514.142c-17.157 0-34.431-7.054-46.812-19.192l-0.456-0.452-198.62-198.618c-28.242-28.267-25.868-67.856 0.065-93.933 25.699-25.84 64.72-28.535 92.97-1.103l0.854 0.84 83.975 84.541V263.832c0-21.748 7.096-40.246 20.037-53.445l0.443-0.448C478.884 197.65 495.501 191 512.728 191z m0 34c-8.353 0-16.283 3.173-22.084 8.977-6.54 6.541-10.397 16.291-10.523 29.196l-0.004 0.659V739.32c0 15.02-18.002 22.593-28.738 12.298l-0.323-0.318-112.999-113.76c-7.57-7.573-15.666-10.72-23.923-10.202-7.712 0.485-15.552 4.251-21.708 10.442-6.165 6.199-9.911 14.094-10.377 21.864-0.49 8.176 2.56 16.18 9.849 23.65l0.402 0.406 198.616 198.615c5.914 5.916 14.527 9.543 22.743 9.684h298.144c17.345 0 30.922-14.054 31.196-32.322V561.602c0-13.232-3.876-23.203-10.526-29.856-5.801-5.803-13.732-8.976-22.084-8.976-8.353 0-16.283 3.173-22.084 8.976-6.54 6.542-10.396 16.292-10.523 29.197l-0.003 0.659c0 9.389-7.612 17-17 17-9.281 0-16.825-7.437-16.997-16.677l-0.003-0.323v-49.629c0-13.232-3.876-23.202-10.527-29.855-5.8-5.803-13.731-8.976-22.084-8.976-8.352 0-16.282 3.173-22.084 8.976-6.65 6.653-10.526 16.623-10.526 29.855 0 22.44-33.323 22.665-33.99 0.674l-0.01-0.674v-49.628c0-13.232-3.876-23.203-10.526-29.855-5.801-5.803-13.732-8.977-22.084-8.977-8.353 0-16.283 3.174-22.084 8.977-6.65 6.652-10.526 16.623-10.526 29.855 0 22.44-33.324 22.665-33.99 0.673l-0.01-0.673V263.832c0-13.232-3.876-23.203-10.526-29.855-5.802-5.804-13.732-8.977-22.084-8.977z"
        fill="#1C0E50" p-id="5043"></path>
    <path
        d="M512.729 225c8.352 0 16.282 3.173 22.084 8.977 6.65 6.652 10.526 16.623 10.526 29.855L545.338 409h-65.22V263.832l0.004-0.659c0.126-12.905 3.983-22.655 10.523-29.196 5.8-5.804 13.731-8.977 22.084-8.977z"
        fill="#FFFFFF" p-id="5044"></path>
</svg>