<?xml version="1.0" encoding="UTF-8"?>
<svg id="_图层_1" data-name="图层 1" xmlns="http://www.w3.org/2000/svg" viewBox="0 0 199.49 199.67">
  <path d="M79.24,19.73h108.91v29.7h-108.91v-29.7Z" style="fill: #79a7ff; stroke-width: 0px;"/>
  <path d="M179.24,199.67H20.26C9.05,199.6,0,190.5,0,179.29V20.39C0,9.18,9.05.07,20.26,0h59.49c3.51.07,6.34,2.9,6.41,6.42v44.36c0,3.54-2.87,6.41-6.41,6.41-3.54,0-6.41-2.86-6.42-6.4,0,0,0,0,0,0V12.36H20.25c-4.13.07-7.44,3.44-7.44,7.56v159.41c0,4.13,3.31,7.49,7.44,7.56h158.98c4.13-.07,7.44-3.44,7.44-7.56V51.84c0-3.54,2.87-6.41,6.41-6.42,3.54,0,6.42,2.87,6.42,6.42h0v127.45c0,11.21-9.05,20.32-20.26,20.39h0Z" style="fill: #377dff; stroke-width: 0px;"/>
  <path d="M192.8,60.77c-3.66-.07-6.61-3.02-6.68-6.68v-18.23c.09-4.29-3.32-7.83-7.6-7.92-.05,0-.11,0-.16,0h-96.27c-3.69,0-6.69-2.99-6.69-6.69s2.99-6.69,6.69-6.69h96.27c11.69.08,21.13,9.58,21.13,21.27v18.25c0,3.69-2.99,6.68-6.68,6.68,0,0,0,0,0,0h0Z" style="fill: #377dff; stroke-width: 0px;"/>
  <path d="M193.08,58.67H10.15c-3.61-.08-6.48-3.07-6.41-6.68-.08-3.62,2.79-6.61,6.41-6.69h182.93c3.62.08,6.48,3.08,6.41,6.69.07,3.61-2.79,6.6-6.41,6.68Z" style="fill: #377dff; stroke-width: 0px;"/>
  <path d="M137.2,58.67c-3.42.24-6.4-2.32-6.68-5.74v-28.15c.55-3.69,3.99-6.24,7.69-5.69,2.94.44,5.25,2.75,5.69,5.69v28.15c-.28,3.42-3.26,5.98-6.68,5.74h0Z" style="fill: #377dff; stroke-width: 0px;"/>
  <path d="M99.78,100.48l-12.83-22.22h-18.39l31.22,54.05,31.22-54.05h-18.39l-12.83,22.22Z" style="fill: #00d797; stroke-width: 0px;"/>
  <path d="M135.28,78.26l-35.49,61.43-35.44-61.43h-20.11l55.55,96.2,55.55-96.2h-20.05Z" style="fill: #306fff; stroke-width: 0px;"/>
</svg>